<svg width="332.77" height="366.92" viewBox="0 0 88.045 97.081" xmlns="http://www.w3.org/2000/svg"><path d="M7.81 72.013s6.213 22.388 28.864 15.304c22.48-6.377 34.887 8.562 36.317 9.611 2.107 2.129-5.448-18.5-21.447-27.772-9.458-5.16-3.521-14.049-2.843-17.188 0 0 7.581 5.306 13.075-2.803 4.964 1.279 8.29-.906 12.558.639 2.594 1.137 13.499.45 9.446-5.645 2.549-1.664 2.818-1.126 4.093-3.659.685-3.07-.87-3.727-1.343-4.567-.128-1.954-1.763-2.708-3.717-1.318-4.476-.804-8.87-.426-11.037-.608-4.751-.666-8.707-3.18-8.707-3.18.578-.768.302-2.429-3.409-2.543-2.038-.671-4.187-1.945-5.76-1.96-1.591 0-1.806-1.574-1.806-1.574-.996-.54-2.433-2.636-2.418-5.852 0-2.031-3.782.197-3.782 4.206 0 4.01-3.607 4.811-3.607 4.811s-1.581-1.414-1.77-3.694c-.362-2.35-3.06-5.928-4.377-1.51-2 4.741-2.16 5.848-2.551 8.157-.813 4.781-.214 4.968-.214 4.968L13.02 50.365z" fill="#7a9"/><path d="M55.967 33.927c.96-.348.555-.257.714-.36-1.835.357-5.974.38-8.878-.702.243.142 1.593.596 1.765.699.135.443.062.892 1.818 1.68 1.586.492 3.624.286 4.238-.328.068-1.044.078-.66.343-.989z" fill="#314b49" stroke="#314b49" stroke-linecap="round" stroke-linejoin="round" stroke-width=".465"/><path d="M76.038 45.8c-1.754-1.293-3.027-.164-4.012-.257.614-.4 2.333-1.278 5.113-1.278 1.57 0 2.405 1.362 3.454 1.368.707.005 2.773-1.06 3.187-1.474-.6.52.282 1.088-.303 1.862-.175.223-.52.937-1.651 1.272-1.272.602-3.356 1.092-5.788-1.493z" fill="#314b49" stroke="#314b49" stroke-width=".31"/><path d="M36.607 41.256a12.641 12.641 0 01-1.992-3.891c-.868-2.044-1.936-4.507-.192-10.22 0 0 .385-.239 0 0-1.624 1.005-2.396 3.679-8.295 5.662-1.991.669-4.589 1.206-8.036 1.485C12.158 34.772.8 45.028.039 54.815c-.176 2.458.192 8.518 2.23 13.834l.003.012.03.076c.032.083.063.166.096.247.174.445.36.871.555 1.279 1.17 2.497 2.766 4.706 4.92 6.127 1.912 1.49 3.476 2.05 3.476 2.05C8.572 65.418 33.75 56.967 36.607 41.256z" fill="#a04d32"/><path d="M50.787 26.865s1.524 3.747 4.483.828C58.146 24 61.71 10.492 64.948 1.804c.995-2.015-1.291-2.62-2.245-.471-4.435 7.133-13.095 22.358-11.916 25.532z" fill="#796958"/><path d="M50.928 25.084s.229-2.546-10.128-.098c-.665.46 1.486 2.928 1.486 2.928 2.566.61 9.218 1.504 8.642-2.83z" fill="#a04d32"/><path d="M41.22 43.293s4.193 8.426 10.911 8.675 6.718-1.693 6.718-1.693-9.628 1.89-17.628-6.982zm1.957 4.77c1.413 1.925 3.011 3.238 4.788 3.958 0 0-4.567 6.888-2.239 12.416s8.139 6.854 14.461 13.176c4.925 4.925 10.64 15.478 10.64 15.478s-11.059-8.79-18.243-8.358c0 0-1.667-5.995-6.564-10.893-6.972-6.972-10.025-16.044-2.843-25.777z" opacity=".26"/><path d="M32.492 31.685c-2.403 1.551-5.221 4.4-15.14 5.013C6.78 40.903.341 53.245 2.608 61.788c.836 4.538 2.413 8.794 2.413 8.794 1.36-13.15 17.611-27.063 27.471-38.897z" fill="#fff" opacity=".18"/></svg>