<?xml version="1.0" encoding="UTF-8" standalone="no"?>
<svg
   xmlns:dc="http://purl.org/dc/elements/1.1/"
   xmlns:cc="http://creativecommons.org/ns#"
   xmlns:rdf="http://www.w3.org/1999/02/22-rdf-syntax-ns#"
   xmlns:svg="http://www.w3.org/2000/svg"
   xmlns="http://www.w3.org/2000/svg"
   xmlns:sodipodi="http://sodipodi.sourceforge.net/DTD/sodipodi-0.dtd"
   xmlns:inkscape="http://www.inkscape.org/namespaces/inkscape"
   viewBox="0 0 466.05972 466"
   version="1.1"
   id="svg4"
   sodipodi:docname="favicon0.svg"
   inkscape:version="1.0.2 (e86c870879, 2021-01-15)"
   width="466.05972"
   height="466">
  <metadata
     id="metadata10">
    <rdf:RDF>
      <cc:Work
         rdf:about="">
        <dc:format>image/svg+xml</dc:format>
        <dc:type
           rdf:resource="http://purl.org/dc/dcmitype/StillImage" />
        <dc:title />
      </cc:Work>
    </rdf:RDF>
  </metadata>
  <defs
     id="defs8" />
  <sodipodi:namedview
     pagecolor="#ffffff"
     bordercolor="#666666"
     borderopacity="1"
     objecttolerance="10"
     gridtolerance="10"
     guidetolerance="10"
     inkscape:pageopacity="0"
     inkscape:pageshadow="2"
     inkscape:window-width="1506"
     inkscape:window-height="1034"
     id="namedview6"
     showgrid="false"
     inkscape:zoom="1.0304523"
     inkscape:cx="704.35466"
     inkscape:cy="213.96795"
     inkscape:window-x="3235"
     inkscape:window-y="174"
     inkscape:window-maximized="0"
     inkscape:current-layer="svg4"
     inkscape:document-rotation="0"
     fit-margin-top="0"
     fit-margin-left="0"
     fit-margin-right="0"
     fit-margin-bottom="0" />
  <path
     d="m 272.45021,55.952357 c -5.63161,-7.88312 -8.6733,-17.32198 -8.704,-27.01 -0.64,-12.42 -23.23,5.013 -19.97,27.16 -1.451,-0.746 -26.88,4.864 -26.88,4.907 -4.906,-19.84 -17.11,-34.5 -24.53,-11.99 -14.93,35.48 -18.77,63.640003 2.453,97.789993 -19.37,86.57 -148.199994,129.1 -134.799994,199 3.733,0.085 34.88,74.28 135.199994,43.92 118.5,-33.64 184,45.14 191.5,50.66 11.09,11.22 -28.74,-97.55 -113.1,-146.4 -49.92,-27.22 -18.56,-74.11 -15,-90.66 0,0 39.98,27.94 68.95,-14.8 26.18,6.74 43.71,-4.757 66.22,3.392 13.65,5.973 71.16,2.368 49.79,-29.76 0,0 19.48,-17.38 21.57,-19.33 3.627,-16.21 -4.586,-19.62999 -7.082,-24.10999 -0.683,-10.28 -9.28,-14.29 -19.58,-6.933 -23.59,-4.224 -46.76,-2.261 -58.2,-3.2 -25.07,-3.52 -45.93,-16.770003 -45.93,-16.770003 -5.823,-17.39 -18.09,-13.44 -33.85,-19.95 -9.63494,-5.54391 -11.59436,-6.35335 -28.057,-15.916 z m -105.46,28.1 c -21.33,22.020003 -44.91,22.270003 -80.639994,28.240003 -27.73,4.992 -78.0099994,52.19999 -85.85999938,101.19999 -0.917,12.97 -1.70600002,46.57 9.04499998,74.62 10.4999994,24.11 17.6599994,36.82 39.3399994,49.79 -18.82,-67.6 112.999994,-113.7 133.599994,-191 h -0.043 c -17.6,-25.59999 -16.11,-39.24999 -15.44,-62.779993 z"
     id="path2"
     style="fill:#a4a4a4;fill-opacity:1"
     sodipodi:nodetypes="cccccccccccccccccccccccccccccc" />
</svg>
